<svg width="127" height="127" viewBox="0 0 127 127" fill="none" xmlns="http://www.w3.org/2000/svg">
<rect x="1.5" y="1.5" width="124" height="124" rx="62" stroke="#F33349" stroke-width="3"/>
<mask id="path-2-outside-1_118_42" maskUnits="userSpaceOnUse" x="39" y="27" width="39" height="79" fill="black">
<rect fill="white" x="39" y="27" width="39" height="79"/>
<path d="M74.5355 30.2727V103H59.1591V44.8679H58.733L42.0781 55.3082V41.6719L60.0824 30.2727H74.5355Z"/>
</mask>
<path d="M74.5355 30.2727H77.5355V27.2727H74.5355V30.2727ZM74.5355 103V106H77.5355V103H74.5355ZM59.1591 103H56.1591V106H59.1591V103ZM59.1591 44.8679H62.1591V41.8679H59.1591V44.8679ZM58.733 44.8679V41.8679H57.8704L57.1395 42.326L58.733 44.8679ZM42.0781 55.3082H39.0781V60.7295L43.6715 57.8501L42.0781 55.3082ZM42.0781 41.6719L40.4733 39.1372L39.0781 40.0205V41.6719H42.0781ZM60.0824 30.2727V27.2727H59.2125L58.4776 27.738L60.0824 30.2727ZM71.5355 30.2727V103H77.5355V30.2727H71.5355ZM74.5355 100H59.1591V106H74.5355V100ZM62.1591 103V44.8679H56.1591V103H62.1591ZM59.1591 41.8679H58.733V47.8679H59.1591V41.8679ZM57.1395 42.326L40.4847 52.7664L43.6715 57.8501L60.3264 47.4098L57.1395 42.326ZM45.0781 55.3082V41.6719H39.0781V55.3082H45.0781ZM43.6829 44.2066L61.6872 32.8074L58.4776 27.738L40.4733 39.1372L43.6829 44.2066ZM60.0824 33.2727H74.5355V27.2727H60.0824V33.2727Z" fill="#F33349" mask="url(#path-2-outside-1_118_42)"/>
</svg>
