<svg width="127" height="127" viewBox="0 0 127 127" fill="none" xmlns="http://www.w3.org/2000/svg">
<rect x="1.5" y="1.5" width="124" height="124" rx="62" stroke="#F33349" stroke-width="3"/>
<mask id="path-2-outside-1_118_45" maskUnits="userSpaceOnUse" x="32" y="23" width="62" height="81" fill="black">
<rect fill="white" x="32" y="23" width="62" height="81"/>
<path d="M62.777 100.994C57.474 100.994 52.7509 100.083 48.608 98.2599C44.4886 96.4134 41.2334 93.8802 38.8423 90.6605C36.4749 87.4171 35.2557 83.6766 35.1847 79.4389H50.6676C50.7623 81.2145 51.3423 82.777 52.4077 84.1264C53.4967 85.4522 54.9408 86.482 56.7401 87.2159C58.5393 87.9498 60.5634 88.3168 62.8125 88.3168C65.1562 88.3168 67.2277 87.9025 69.027 87.0739C70.8262 86.2453 72.2348 85.0971 73.2528 83.6293C74.2708 82.1615 74.7798 80.4687 74.7798 78.5511C74.7798 76.6098 74.2353 74.8935 73.1463 73.402C72.081 71.8868 70.5421 70.7031 68.5298 69.8509C66.5412 68.9986 64.1738 68.5724 61.4276 68.5724H54.6449V57.2798H61.4276C63.7476 57.2798 65.7955 56.8774 67.571 56.0724C69.3703 55.2675 70.767 54.1548 71.7614 52.7344C72.7557 51.2902 73.2528 49.6094 73.2528 47.6918C73.2528 45.8688 72.8149 44.2708 71.9389 42.8977C71.0866 41.5009 69.8793 40.4119 68.3168 39.6307C66.7779 38.8494 64.9787 38.4588 62.919 38.4588C60.8357 38.4588 58.9299 38.8376 57.2017 39.5952C55.4735 40.3291 54.0885 41.3826 53.0469 42.7557C52.0052 44.1288 51.4489 45.7386 51.3778 47.5852H36.6406C36.7116 43.3949 37.9072 39.7017 40.2273 36.5057C42.5473 33.3097 45.6723 30.812 49.6023 29.0128C53.5559 27.1899 58.0185 26.2784 62.9901 26.2784C68.009 26.2784 72.4006 27.1899 76.1648 29.0128C79.929 30.8357 82.8527 33.2978 84.9361 36.3991C87.0431 39.4768 88.0848 42.9332 88.0611 46.7685C88.0848 50.8404 86.8182 54.2377 84.2614 56.9602C81.7282 59.6828 78.4257 61.411 74.3537 62.1449V62.7131C79.7041 63.3996 83.776 65.258 86.5696 68.2884C89.3868 71.295 90.7836 75.0592 90.7599 79.581C90.7836 83.724 89.5881 87.4053 87.1733 90.625C84.7822 93.8447 81.4796 96.3778 77.2656 98.2244C73.0516 100.071 68.2221 100.994 62.777 100.994Z"/>
</mask>
<path d="M48.608 98.2599L47.3808 100.997L47.3902 101.002L47.3997 101.006L48.608 98.2599ZM38.8423 90.6605L36.4192 92.4292L36.4265 92.4392L36.4339 92.4492L38.8423 90.6605ZM35.1847 79.4389V76.4389H32.134L32.1851 79.4892L35.1847 79.4389ZM50.6676 79.4389L53.6634 79.2791L53.5119 76.4389H50.6676V79.4389ZM52.4077 84.1264L50.053 85.9854L50.071 86.0082L50.0895 86.0306L52.4077 84.1264ZM56.7401 87.2159L55.607 89.9937H55.607L56.7401 87.2159ZM69.027 87.0739L67.7721 84.3489L69.027 87.0739ZM73.2528 83.6293L75.718 85.339L73.2528 83.6293ZM73.1463 73.402L70.6922 75.1275L70.7076 75.1494L70.7234 75.1711L73.1463 73.402ZM68.5298 69.8509L67.3481 72.6083L67.3599 72.6133L68.5298 69.8509ZM54.6449 68.5724H51.6449V71.5724H54.6449V68.5724ZM54.6449 57.2798V54.2798H51.6449V57.2798H54.6449ZM67.571 56.0724L66.3459 53.334L66.3391 53.337L66.3324 53.3401L67.571 56.0724ZM71.7614 52.7344L74.2191 54.4548L74.2257 54.4452L74.2323 54.4357L71.7614 52.7344ZM71.9389 42.8977L69.378 44.4603L69.3936 44.4859L69.4097 44.5112L71.9389 42.8977ZM68.3168 39.6307L66.9587 42.3057L66.9669 42.3098L66.9751 42.314L68.3168 39.6307ZM57.2017 39.5952L58.3743 42.3565L58.3903 42.3497L58.4061 42.3428L57.2017 39.5952ZM53.0469 42.7557L55.4369 44.5688L55.437 44.5688L53.0469 42.7557ZM51.3778 47.5852V50.5852H54.2647L54.3756 47.7005L51.3778 47.5852ZM36.6406 47.5852L33.6411 47.5344L33.5893 50.5852H36.6406V47.5852ZM40.2273 36.5057L42.655 38.2681L42.655 38.2681L40.2273 36.5057ZM49.6023 29.0128L50.8511 31.7405L50.8584 31.7371L49.6023 29.0128ZM76.1648 29.0128L77.4723 26.3127H77.4723L76.1648 29.0128ZM84.9361 36.3991L82.4458 38.072L82.4532 38.083L82.4606 38.0939L84.9361 36.3991ZM88.0611 46.7685L85.0611 46.7499L85.061 46.7679L85.0611 46.7859L88.0611 46.7685ZM84.2614 56.9602L82.0745 54.9065L82.065 54.9167L84.2614 56.9602ZM74.3537 62.1449L73.8216 59.1925L71.3537 59.6372V62.1449H74.3537ZM74.3537 62.7131H71.3537V65.3527L73.9719 65.6887L74.3537 62.7131ZM86.5696 68.2884L84.3639 70.3218L84.3721 70.3307L84.3805 70.3396L86.5696 68.2884ZM90.7599 79.581L87.76 79.5653L87.7599 79.5817L87.76 79.5981L90.7599 79.581ZM87.1733 90.625L84.7733 88.825L84.7691 88.8307L84.7648 88.8364L87.1733 90.625ZM77.2656 98.2244L76.0616 95.4767L77.2656 98.2244ZM62.777 97.9943C57.8194 97.9943 53.5187 97.1431 49.8162 95.514L47.3997 101.006C51.9832 103.023 57.1286 103.994 62.777 103.994V97.9943ZM49.8351 95.5224C46.1244 93.859 43.2989 91.6297 41.2508 88.8719L36.4339 92.4492C39.1679 96.1307 42.8529 98.9677 47.3808 100.997L49.8351 95.5224ZM41.2655 88.8918C39.2837 86.1767 38.2455 83.0442 38.1842 79.3886L32.1851 79.4892C32.2659 84.3091 33.6662 88.6576 36.4192 92.4292L41.2655 88.8918ZM35.1847 82.4389H50.6676V76.4389H35.1847V82.4389ZM47.6719 79.5987C47.7984 81.9707 48.5898 84.1319 50.053 85.9854L54.7623 82.2675C54.0949 81.422 53.7262 80.4583 53.6634 79.2791L47.6719 79.5987ZM50.0895 86.0306C51.5348 87.7901 53.4083 89.0969 55.607 89.9937L57.8731 84.4381C56.4734 83.8672 55.4586 83.1142 54.7259 82.2222L50.0895 86.0306ZM55.607 89.9937C57.818 90.8956 60.2354 91.3168 62.8125 91.3168V85.3168C60.8915 85.3168 59.2606 85.0041 57.8731 84.4381L55.607 89.9937ZM62.8125 91.3168C65.511 91.3168 68.0236 90.8388 70.2819 89.7988L67.7721 84.3489C66.4319 84.9661 64.8015 85.3168 62.8125 85.3168V91.3168ZM70.2819 89.7988C72.5135 88.7711 74.3621 87.294 75.718 85.339L70.7877 81.9196C70.1076 82.9001 69.1389 83.7195 67.7721 84.3489L70.2819 89.7988ZM75.718 85.339C77.1103 83.3315 77.7798 81.0325 77.7798 78.5511H71.7798C71.7798 79.905 71.4314 80.9914 70.7877 81.9196L75.718 85.339ZM77.7798 78.5511C77.7798 76.0086 77.0532 73.6653 75.5692 71.6329L70.7234 75.1711C71.4175 76.1216 71.7798 77.2111 71.7798 78.5511H77.7798ZM75.6004 71.6765C74.1582 69.6254 72.1345 68.1196 69.6998 67.0884L67.3599 72.6133C68.9497 73.2867 70.0037 74.1483 70.6922 75.1275L75.6004 71.6765ZM69.7116 67.0934C67.2635 66.0443 64.4747 65.5724 61.4276 65.5724V71.5724C63.8728 71.5724 65.8188 71.9529 67.3481 72.6083L69.7116 67.0934ZM61.4276 65.5724H54.6449V71.5724H61.4276V65.5724ZM57.6449 68.5724V57.2798H51.6449V68.5724H57.6449ZM54.6449 60.2798H61.4276V54.2798H54.6449V60.2798ZM61.4276 60.2798C64.0948 60.2798 66.5781 59.8164 68.8097 58.8048L66.3324 53.3401C65.0128 53.9383 63.4005 54.2798 61.4276 54.2798V60.2798ZM68.7961 58.8109C71.0216 57.8153 72.8728 56.3781 74.2191 54.4548L69.3037 51.014C68.6613 51.9316 67.719 52.7197 66.3459 53.334L68.7961 58.8109ZM74.2323 54.4357C75.6035 52.4442 76.2528 50.1574 76.2528 47.6918H70.2528C70.2528 49.0614 69.9079 50.1363 69.2904 51.0331L74.2323 54.4357ZM76.2528 47.6918C76.2528 45.3675 75.6873 43.1954 74.4681 41.2843L69.4097 44.5112C69.9425 45.3463 70.2528 46.3702 70.2528 47.6918H76.2528ZM74.4998 41.3351C73.3343 39.425 71.6889 37.9626 69.6584 36.9474L66.9751 42.314C68.0696 42.8612 68.839 43.5769 69.378 44.4603L74.4998 41.3351ZM69.6748 36.9557C67.6412 35.9232 65.36 35.4588 62.919 35.4588V41.4588C64.5974 41.4588 65.9147 41.7756 66.9587 42.3057L69.6748 36.9557ZM62.919 35.4588C60.4645 35.4588 58.143 35.9069 55.9973 36.8476L58.4061 42.3428C59.7168 41.7682 61.2069 41.4588 62.919 41.4588V35.4588ZM56.0291 36.8338C53.8636 37.7534 52.0425 39.1159 50.6568 40.9425L55.437 44.5688C56.1345 43.6493 57.0833 42.9047 58.3743 42.3565L56.0291 36.8338ZM50.6568 40.9425C49.2159 42.8419 48.4729 45.0553 48.3801 47.4699L54.3756 47.7005C54.4248 46.422 54.7945 45.4157 55.4369 44.5688L50.6568 40.9425ZM51.3778 44.5852H36.6406V50.5852H51.3778V44.5852ZM39.6402 47.6361C39.7015 44.0216 40.7194 40.9345 42.655 38.2681L37.7995 34.7433C35.095 38.4689 33.7218 42.7682 33.6411 47.5344L39.6402 47.6361ZM42.655 38.2681C44.6437 35.5286 47.3452 33.3456 50.8511 31.7405L48.3534 26.2851C43.9995 28.2784 40.451 31.0907 37.7995 34.7433L42.655 38.2681ZM50.8584 31.7371C54.3659 30.1199 58.3907 29.2784 62.9901 29.2784V23.2784C57.6463 23.2784 52.7459 24.2598 48.3461 26.2884L50.8584 31.7371ZM62.9901 29.2784C67.6455 29.2784 71.5741 30.1229 74.8572 31.7128L77.4723 26.3127C73.227 24.2568 68.3724 23.2784 62.9901 23.2784V29.2784ZM74.8572 31.7128C78.2016 33.3324 80.693 35.4627 82.4458 38.072L87.4264 34.7263C85.0125 31.1329 81.6564 28.339 77.4723 26.3127L74.8572 31.7128ZM82.4606 38.0939C84.2121 40.6522 85.0812 43.5075 85.0611 46.7499L91.061 46.787C91.0884 42.359 89.8741 38.3014 87.4115 34.7044L82.4606 38.0939ZM85.0611 46.7859C85.0808 50.1646 84.0551 52.7976 82.0745 54.9065L86.4482 59.0139C89.5813 55.6778 91.0887 51.5162 91.061 46.751L85.0611 46.7859ZM82.065 54.9167C80.0234 57.1109 77.3308 58.56 73.8216 59.1925L74.8858 65.0973C79.5206 64.262 83.433 62.2546 86.4577 59.0038L82.065 54.9167ZM71.3537 62.1449V62.7131H77.3537V62.1449H71.3537ZM73.9719 65.6887C78.8415 66.3135 82.1795 67.9523 84.3639 70.3218L88.7753 66.2549C85.3725 62.5638 80.5666 60.4857 74.7355 59.7375L73.9719 65.6887ZM84.3805 70.3396C86.6198 72.7295 87.7801 75.7293 87.76 79.5653L93.7599 79.5967C93.7872 74.3891 92.1539 69.8605 88.7588 66.2371L84.3805 70.3396ZM87.76 79.5981C87.78 83.1069 86.7828 86.1456 84.7733 88.825L89.5733 92.425C92.3933 88.665 93.7872 84.341 93.7599 79.5638L87.76 79.5981ZM84.7648 88.8364C82.7283 91.5786 79.8689 93.8083 76.0616 95.4767L78.4697 100.972C83.0904 98.9474 86.8361 96.1108 89.5818 92.4136L84.7648 88.8364ZM76.0616 95.4767C72.2903 97.1292 67.8825 97.9943 62.777 97.9943V103.994C68.5616 103.994 73.8129 103.013 78.4697 100.972L76.0616 95.4767Z" fill="#F33349" mask="url(#path-2-outside-1_118_45)"/>
</svg>
