<svg width="127" height="127" viewBox="0 0 127 127" fill="none" xmlns="http://www.w3.org/2000/svg">
<rect x="1.5" y="1.5" width="124" height="124" rx="62" stroke="#F33349" stroke-width="3"/>
<mask id="path-2-outside-1_118_47" maskUnits="userSpaceOnUse" x="26" y="26" width="66" height="79" fill="black">
<rect fill="white" x="26" y="26" width="66" height="79"/>
<path d="M29.794 89.2159V77.1065L60.1562 29.2727H70.5966V46.0341H64.4176L45.277 76.3253V76.8935H88.4233V89.2159H29.794ZM64.7017 102V85.5227L64.9858 80.1605V29.2727H79.4034V102H64.7017Z"/>
</mask>
<path d="M29.794 89.2159H26.794V92.2159H29.794V89.2159ZM29.794 77.1065L27.2612 75.4988L26.794 76.2348V77.1065H29.794ZM60.1562 29.2727V26.2727H58.5072L57.6234 27.665L60.1562 29.2727ZM70.5966 29.2727H73.5966V26.2727H70.5966V29.2727ZM70.5966 46.0341V49.0341H73.5966V46.0341H70.5966ZM64.4176 46.0341V43.0341H62.7645L61.8815 44.4315L64.4176 46.0341ZM45.277 76.3253L42.7409 74.7227L42.277 75.4569V76.3253H45.277ZM45.277 76.8935H42.277V79.8935H45.277V76.8935ZM88.4233 76.8935H91.4233V73.8935H88.4233V76.8935ZM88.4233 89.2159V92.2159H91.4233V89.2159H88.4233ZM64.7017 102H61.7017V105H64.7017V102ZM64.7017 85.5227L61.7059 85.364L61.7017 85.4433V85.5227H64.7017ZM64.9858 80.1605L67.9816 80.3192L67.9858 80.2399V80.1605H64.9858ZM64.9858 29.2727V26.2727H61.9858V29.2727H64.9858ZM79.4034 29.2727H82.4034V26.2727H79.4034V29.2727ZM79.4034 102V105H82.4034V102H79.4034ZM32.794 89.2159V77.1065H26.794V89.2159H32.794ZM32.3269 78.7142L62.6891 30.8804L57.6234 27.665L27.2612 75.4988L32.3269 78.7142ZM60.1562 32.2727H70.5966V26.2727H60.1562V32.2727ZM67.5966 29.2727V46.0341H73.5966V29.2727H67.5966ZM70.5966 43.0341H64.4176V49.0341H70.5966V43.0341ZM61.8815 44.4315L42.7409 74.7227L47.8131 77.9278L66.9537 47.6366L61.8815 44.4315ZM42.277 76.3253V76.8935H48.277V76.3253H42.277ZM45.277 79.8935H88.4233V73.8935H45.277V79.8935ZM85.4233 76.8935V89.2159H91.4233V76.8935H85.4233ZM88.4233 86.2159H29.794V92.2159H88.4233V86.2159ZM67.7017 102V85.5227H61.7017V102H67.7017ZM67.6975 85.6814L67.9816 80.3192L61.99 80.0018L61.7059 85.364L67.6975 85.6814ZM67.9858 80.1605V29.2727H61.9858V80.1605H67.9858ZM64.9858 32.2727H79.4034V26.2727H64.9858V32.2727ZM76.4034 29.2727V102H82.4034V29.2727H76.4034ZM79.4034 99H64.7017V105H79.4034V99Z" fill="#F33349" mask="url(#path-2-outside-1_118_47)"/>
</svg>
