<svg width="127" height="127" viewBox="0 0 127 127" fill="none" xmlns="http://www.w3.org/2000/svg">
<rect x="1.5" y="1.5" width="124" height="124" rx="62" stroke="#F33349" stroke-width="3"/>
<mask id="path-2-outside-1_118_43" maskUnits="userSpaceOnUse" x="34" y="20" width="59" height="80" fill="black">
<rect fill="white" x="34" y="20" width="59" height="80"/>
<path d="M37.8949 97V85.9205L63.7827 61.9503C65.9844 59.8196 67.831 57.902 69.3224 56.1974C70.8376 54.4929 71.9858 52.8239 72.767 51.1903C73.5483 49.5331 73.9389 47.7457 73.9389 45.8281C73.9389 43.6974 73.4536 41.8627 72.483 40.3239C71.5123 38.7614 70.1866 37.5658 68.5057 36.7372C66.8248 35.8849 64.919 35.4588 62.7884 35.4588C60.563 35.4588 58.6217 35.9086 56.9645 36.8082C55.3073 37.7079 54.0289 38.9981 53.1293 40.679C52.2296 42.3598 51.7798 44.3603 51.7798 46.6804H37.1847C37.1847 41.9219 38.2618 37.7907 40.4162 34.2869C42.5705 30.7831 45.589 28.0724 49.4716 26.1548C53.3542 24.2372 57.8286 23.2784 62.8949 23.2784C68.1032 23.2784 72.6368 24.2017 76.4957 26.0483C80.3783 27.8712 83.3968 30.4044 85.5511 33.6477C87.7055 36.8911 88.7827 40.608 88.7827 44.7983C88.7827 47.5445 88.2382 50.2552 87.1491 52.9304C86.0838 55.6056 84.178 58.5767 81.4318 61.8438C78.6856 65.0871 74.8149 68.9815 69.8196 73.527L59.2017 83.9318V84.429H89.7415V97H37.8949Z"/>
</mask>
<path d="M37.8949 97H34.8949V100H37.8949V97ZM37.8949 85.9205L35.8567 83.7192L34.8949 84.6097V85.9205H37.8949ZM63.7827 61.9503L65.8209 64.1516L65.8452 64.1291L65.8689 64.1061L63.7827 61.9503ZM69.3224 56.1974L67.0802 54.2043L67.0724 54.2131L67.0647 54.2219L69.3224 56.1974ZM72.767 51.1903L75.4734 52.4847L75.4771 52.4772L75.4806 52.4696L72.767 51.1903ZM72.483 40.3239L69.9346 41.9069L69.9401 41.9157L69.9456 41.9244L72.483 40.3239ZM68.5057 36.7372L67.149 39.4129L67.1641 39.4206L67.1792 39.428L68.5057 36.7372ZM53.1293 40.679L55.7743 42.0946V42.0946L53.1293 40.679ZM51.7798 46.6804V49.6804H54.7798V46.6804H51.7798ZM37.1847 46.6804H34.1847V49.6804H37.1847V46.6804ZM40.4162 34.2869L42.9718 35.8583L40.4162 34.2869ZM49.4716 26.1548L48.1431 23.465H48.1431L49.4716 26.1548ZM76.4957 26.0483L75.2008 28.7544L75.2107 28.7592L75.2207 28.7639L76.4957 26.0483ZM85.5511 33.6477L83.0522 35.3076L85.5511 33.6477ZM87.1492 52.9304L84.3706 51.7993L84.3662 51.8099L84.362 51.8205L87.1492 52.9304ZM81.4318 61.8438L83.7214 63.7823L83.7283 63.7741L81.4318 61.8438ZM69.8196 73.527L67.8005 71.3081L67.7595 71.3455L67.7199 71.3843L69.8196 73.527ZM59.2017 83.9318L57.102 81.7891L56.2017 82.6713V83.9318H59.2017ZM59.2017 84.429H56.2017V87.429H59.2017V84.429ZM89.7415 84.429H92.7415V81.429H89.7415V84.429ZM89.7415 97V100H92.7415V97H89.7415ZM40.8949 97V85.9205H34.8949V97H40.8949ZM39.9331 88.1217L65.8209 64.1516L61.7444 59.749L35.8567 83.7192L39.9331 88.1217ZM65.8689 64.1061C68.111 61.9363 70.0189 59.9573 71.5802 58.173L67.0647 54.2219C65.643 55.8467 63.8577 57.7029 61.6964 59.7945L65.8689 64.1061ZM71.5647 58.1905C73.2205 56.3277 74.5443 54.4274 75.4734 52.4847L70.0606 49.896C69.4273 51.2203 68.4547 52.6581 67.0802 54.2043L71.5647 58.1905ZM75.4806 52.4696C76.4593 50.3936 76.9389 48.1669 76.9389 45.8281H70.9389C70.9389 47.3246 70.6373 48.6727 70.0535 49.9111L75.4806 52.4696ZM76.9389 45.8281C76.9389 43.2295 76.3418 40.8183 75.0204 38.7234L69.9456 41.9244C70.5654 42.907 70.9389 44.1654 70.9389 45.8281H76.9389ZM75.0313 38.7408C73.759 36.6928 72.0058 35.1179 69.8321 34.0464L67.1792 39.428C68.3673 40.0137 69.2656 40.8299 69.9346 41.9069L75.0313 38.7408ZM69.8624 34.0615C67.709 32.9696 65.3284 32.4588 62.7884 32.4588V38.4588C64.5097 38.4588 65.9407 38.8003 67.149 39.4129L69.8624 34.0615ZM62.7884 32.4588C60.1532 32.4588 57.7027 32.9939 55.5332 34.1717L58.3958 39.4448C59.5407 38.8233 60.9727 38.4588 62.7884 38.4588V32.4588ZM55.5332 34.1717C53.3548 35.3542 51.6572 37.0717 50.4843 39.2633L55.7743 42.0946C56.4005 40.9245 57.2598 40.0615 58.3958 39.4448L55.5332 34.1717ZM50.4843 39.2633C49.3062 41.4645 48.7798 43.9725 48.7798 46.6804H54.7798C54.7798 44.7481 55.1531 43.2552 55.7743 42.0946L50.4843 39.2633ZM51.7798 43.6804H37.1847V49.6804H51.7798V43.6804ZM40.1847 46.6804C40.1847 42.388 41.1512 38.8192 42.9718 35.8583L37.8606 32.7156C35.3725 36.7622 34.1847 41.4557 34.1847 46.6804H40.1847ZM42.9718 35.8583C44.8145 32.8612 47.3956 30.5261 50.8001 28.8446L48.1431 23.465C43.7824 25.6188 40.3266 28.705 37.8606 32.7156L42.9718 35.8583ZM50.8001 28.8446C54.2048 27.163 58.2113 26.2784 62.8949 26.2784V20.2784C57.4459 20.2784 52.5035 21.3114 48.1431 23.465L50.8001 28.8446ZM62.8949 26.2784C67.7508 26.2784 71.8245 27.1387 75.2008 28.7544L77.7907 23.3422C73.4492 21.2647 68.4557 20.2784 62.8949 20.2784V26.2784ZM75.2207 28.7639C78.6585 30.3779 81.2319 32.5671 83.0522 35.3076L88.0501 31.9878C85.5617 28.2416 82.0981 25.3645 77.7707 23.3327L75.2207 28.7639ZM83.0522 35.3076C84.8547 38.0212 85.7827 41.1514 85.7827 44.7983H91.7827C91.7827 40.0645 90.5563 35.761 88.0501 31.9878L83.0522 35.3076ZM85.7827 44.7983C85.7827 47.1368 85.321 49.4644 84.3706 51.7993L89.9277 54.0615C91.1553 51.046 91.7827 47.9522 91.7827 44.7983H85.7827ZM84.362 51.8205C83.4577 54.0912 81.7648 56.7852 79.1354 59.9134L83.7283 63.7741C86.5912 60.3682 88.7099 57.12 89.9363 54.0403L84.362 51.8205ZM79.1423 59.9052C76.514 63.0092 72.7486 66.8057 67.8005 71.3081L71.8387 75.7459C76.8812 71.1574 80.8572 67.165 83.7213 63.7823L79.1423 59.9052ZM67.7199 71.3843L57.102 81.7891L61.3014 86.0745L71.9193 75.6697L67.7199 71.3843ZM56.2017 83.9318V84.429H62.2017V83.9318H56.2017ZM59.2017 87.429H89.7415V81.429H59.2017V87.429ZM86.7415 84.429V97H92.7415V84.429H86.7415ZM89.7415 94H37.8949V100H89.7415V94Z" fill="#F33349" mask="url(#path-2-outside-1_118_43)"/>
</svg>
