<svg width="70" height="70" viewBox="0 0 70 70" fill="none" xmlns="http://www.w3.org/2000/svg">
<rect width="70" height="70" rx="35" fill="#F33349" fill-opacity="0.1"/>
<path d="M17.75 25.4167V21.5833C17.75 20.5667 18.1539 19.5916 18.8728 18.8728C19.5916 18.1539 20.5667 17.75 21.5833 17.75H25.4167" stroke="#F33349" stroke-width="3" stroke-linecap="round" stroke-linejoin="round"/>
<path d="M44.5835 17.75H48.4168C49.4335 17.75 50.4085 18.1539 51.1274 18.8728C51.8463 19.5916 52.2502 20.5667 52.2502 21.5833V25.4167" stroke="#F33349" stroke-width="3" stroke-linecap="round" stroke-linejoin="round"/>
<path d="M52.2502 44.5833V48.4166C52.2502 49.4332 51.8463 50.4083 51.1274 51.1272C50.4085 51.846 49.4335 52.2499 48.4168 52.2499H44.5835" stroke="#F33349" stroke-width="3" stroke-linecap="round" stroke-linejoin="round"/>
<path d="M25.4167 52.2499H21.5833C20.5667 52.2499 19.5916 51.846 18.8728 51.1272C18.1539 50.4083 17.75 49.4332 17.75 48.4166V44.5833" stroke="#F33349" stroke-width="3" stroke-linecap="round" stroke-linejoin="round"/>
<path d="M35.0002 36.9166C36.0587 36.9166 36.9168 36.0585 36.9168 34.9999C36.9168 33.9414 36.0587 33.0833 35.0002 33.0833C33.9416 33.0833 33.0835 33.9414 33.0835 34.9999C33.0835 36.0585 33.9416 36.9166 35.0002 36.9166Z" stroke="#F33349" stroke-width="3" stroke-linecap="round" stroke-linejoin="round"/>
<path d="M21.5835 35.0001C21.5835 35.0001 26.3752 25.4167 35.0002 25.4167C43.6252 25.4167 48.4168 35.0001 48.4168 35.0001C48.4168 35.0001 43.6252 44.5834 35.0002 44.5834C26.3752 44.5834 21.5835 35.0001 21.5835 35.0001Z" stroke="#F33349" stroke-width="3" stroke-linecap="round" stroke-linejoin="round"/>
</svg>
