<svg width="70" height="70" viewBox="0 0 70 70" fill="none" xmlns="http://www.w3.org/2000/svg">
<rect width="70" height="70" rx="35" fill="#00A8B3" fill-opacity="0.13"/>
<path d="M47 47C47.7956 47 48.5587 46.6839 49.1213 46.1213C49.6839 45.5587 50 44.7956 50 44V29C50 28.2044 49.6839 27.4413 49.1213 26.8787C48.5587 26.3161 47.7956 26 47 26H35.15C34.6483 26.0049 34.1533 25.8839 33.7105 25.6481C33.2676 25.4122 32.8909 25.0691 32.615 24.65L31.4 22.85C31.1268 22.4352 30.755 22.0947 30.3177 21.8591C29.8805 21.6235 29.3917 21.5001 28.895 21.5H23C22.2044 21.5 21.4413 21.8161 20.8787 22.3787C20.3161 22.9413 20 23.7044 20 24.5V44C20 44.7956 20.3161 45.5587 20.8787 46.1213C21.4413 46.6839 22.2044 47 23 47H47Z" stroke="#005C62" stroke-width="3" stroke-linecap="round" stroke-linejoin="round"/>
<path d="M35 32V41" stroke="#005C62" stroke-width="3" stroke-linecap="round" stroke-linejoin="round"/>
<path d="M39.5 36.5L35 41L30.5 36.5" stroke="#005C62" stroke-width="3" stroke-linecap="round" stroke-linejoin="round"/>
</svg>
