<svg width="70" height="70" viewBox="0 0 70 70" fill="none" xmlns="http://www.w3.org/2000/svg">
<rect width="70" height="70" rx="35" fill="#8F00FF" fill-opacity="0.1"/>
<path d="M32.5 23H22.7778C22.0411 23 21.3345 23.3161 20.8136 23.8787C20.2927 24.4413 20 25.2044 20 26V47C20 47.7956 20.2927 48.5587 20.8136 49.1213C21.3345 49.6839 22.0411 50 22.7778 50H42.2222C42.9589 50 43.6655 49.6839 44.1864 49.1213C44.7073 48.5587 45 47.7956 45 47V36.5" stroke="#8F00FF" stroke-width="3" stroke-linecap="round" stroke-linejoin="round"/>
<path d="M43.6147 20.88C44.2063 20.3165 45.0087 20 45.8454 20C46.682 20 47.4844 20.3165 48.076 20.88C48.6676 21.4434 49 22.2076 49 23.0044C49 23.8012 48.6676 24.5654 48.076 25.1289L33.9485 38.5837L28 40L29.4871 34.3348L43.6147 20.88Z" stroke="#8F00FF" stroke-width="3" stroke-linecap="round" stroke-linejoin="round"/>
</svg>
