<svg width="70" height="70" viewBox="0 0 70 70" fill="none" xmlns="http://www.w3.org/2000/svg">
<rect width="70" height="70" rx="35" fill="#001AFF" fill-opacity="0.1"/>
<path d="M34.4998 21.0626C34.5064 19.9417 34.0926 18.8591 33.3399 18.0284C32.5872 17.1978 31.5505 16.6795 30.4343 16.576C29.3182 16.4725 28.2038 16.7913 27.3112 17.4693C26.4187 18.1474 25.8127 19.1354 25.6131 20.2384C25.0225 20.3491 24.4602 20.5775 23.9597 20.9099C23.4591 21.2424 23.0306 21.6722 22.6996 22.1737C22.3686 22.6752 22.1419 23.2382 22.033 23.8291C21.9241 24.4201 21.9352 25.0269 22.0656 25.6134C21.257 25.757 20.5034 26.1201 19.8872 26.6631C19.271 27.2061 18.816 27.9081 18.5719 28.6922C18.3277 29.4764 18.3039 30.3126 18.503 31.1094C18.7021 31.9062 19.1164 32.6329 19.7006 33.2101C18.718 33.6638 17.8951 34.4036 17.3399 35.3326C16.7846 36.2617 16.5227 37.3367 16.5886 38.417C16.6544 39.4974 17.0448 40.5327 17.7088 41.3874C18.3728 42.2422 19.2793 42.8766 20.3098 43.2076C20.113 43.9509 20.1109 44.7323 20.3037 45.4766C20.4964 46.221 20.8775 46.9031 21.4103 47.4575C21.9431 48.0119 22.6096 48.4198 23.3457 48.6419C24.0817 48.8641 24.8626 48.893 25.6131 48.726C25.7991 49.7506 26.3363 50.6783 27.1323 51.3498C27.9283 52.0212 28.9334 52.3943 29.9747 52.4049C31.016 52.4155 32.0284 52.0629 32.8379 51.4079C33.6474 50.7528 34.2034 49.8361 34.4102 48.8155L34.4998 48.8335V21.0626Z" stroke="#0047FF" stroke-width="3" stroke-linecap="round" stroke-linejoin="round"/>
<path d="M41.6665 27.3333V21.9583C41.6665 19.9875 43.279 18.375 45.2498 18.375" stroke="#0047FF" stroke-width="3" stroke-linecap="round" stroke-linejoin="round"/>
<path d="M34.5 36.2917H41.6667" stroke="#0047FF" stroke-width="3" stroke-linecap="round" stroke-linejoin="round"/>
<path d="M34.5 45.25H45.25C46.2004 45.25 47.1118 45.6275 47.7838 46.2995C48.4558 46.9715 48.8333 47.883 48.8333 48.8333V50.625" stroke="#0047FF" stroke-width="3" stroke-linecap="round" stroke-linejoin="round"/>
<path d="M34.5 27.3333H48.8333" stroke="#0047FF" stroke-width="3" stroke-linecap="round" stroke-linejoin="round"/>
<path d="M49.7292 27.3333C49.7292 27.5709 49.6348 27.7988 49.4668 27.9668C49.2988 28.1348 49.0709 28.2292 48.8333 28.2292C48.5957 28.2292 48.3679 28.1348 48.1999 27.9668C48.0319 27.7988 47.9375 27.5709 47.9375 27.3333C47.9375 27.0957 48.0319 26.8679 48.1999 26.6999C48.3679 26.5319 48.5957 26.4375 48.8333 26.4375C49.0709 26.4375 49.2988 26.5319 49.4668 26.6999C49.6348 26.8679 49.7292 27.0957 49.7292 27.3333Z" stroke="#0047FF" stroke-width="3" stroke-linecap="round" stroke-linejoin="round"/>
<path d="M42.5627 36.2916C42.5627 36.5292 42.4683 36.757 42.3003 36.925C42.1323 37.093 41.9044 37.1874 41.6668 37.1874C41.4292 37.1874 41.2014 37.093 41.0334 36.925C40.8654 36.757 40.771 36.5292 40.771 36.2916C40.771 36.054 40.8654 35.8261 41.0334 35.6581C41.2014 35.4901 41.4292 35.3958 41.6668 35.3958C41.9044 35.3958 42.1323 35.4901 42.3003 35.6581C42.4683 35.8261 42.5627 36.054 42.5627 36.2916Z" stroke="#0047FF" stroke-width="3" stroke-linecap="round" stroke-linejoin="round"/>
<path d="M49.7292 50.6251C49.7292 50.8627 49.6348 51.0905 49.4668 51.2585C49.2988 51.4265 49.0709 51.5209 48.8333 51.5209C48.5957 51.5209 48.3679 51.4265 48.1999 51.2585C48.0319 51.0905 47.9375 50.8627 47.9375 50.6251C47.9375 50.3875 48.0319 50.1596 48.1999 49.9916C48.3679 49.8236 48.5957 49.7292 48.8333 49.7292C49.0709 49.7292 49.2988 49.8236 49.4668 49.9916C49.6348 50.1596 49.7292 50.3875 49.7292 50.6251Z" stroke="#0047FF" stroke-width="3" stroke-linecap="round" stroke-linejoin="round"/>
<path d="M46.1457 18.3751C46.1457 18.6127 46.0513 18.8405 45.8833 19.0085C45.7153 19.1765 45.4874 19.2709 45.2498 19.2709C45.0122 19.2709 44.7844 19.1765 44.6164 19.0085C44.4484 18.8405 44.354 18.6127 44.354 18.3751C44.354 18.1375 44.4484 17.9096 44.6164 17.7416C44.7844 17.5736 45.0122 17.4792 45.2498 17.4792C45.4874 17.4792 45.7153 17.5736 45.8833 17.7416C46.0513 17.9096 46.1457 18.1375 46.1457 18.3751Z" stroke="#0047FF" stroke-width="3" stroke-linecap="round" stroke-linejoin="round"/>
</svg>
