<svg width="110" height="100" viewBox="0 0 110 100" fill="none" xmlns="http://www.w3.org/2000/svg">
<g clip-path="url(#clip0_158_25)">
<path d="M84.4014 34.0803C91.0227 34.0803 96.4088 28.7098 96.4088 22.1077C96.4088 15.5057 91.0227 10.1338 84.4014 10.1338C77.7802 10.1338 72.394 15.5057 72.394 22.1077C72.394 28.7098 77.7802 34.0803 84.4014 34.0803ZM84.4014 13.9866C88.8919 13.9866 92.5448 17.6289 92.5448 22.1064C92.5448 26.5839 88.8919 30.2248 84.4014 30.2248C79.9109 30.2248 76.258 26.5839 76.258 22.1064C76.258 17.6289 79.9109 13.9866 84.4014 13.9866Z" fill="#FF6B00"/>
<path d="M31.1899 67.0134C31.6357 68.9398 32.5244 70.7355 33.8161 72.2684C38.9828 73.8494 45.5613 74.386 50.8149 74.525C51.4194 74.1026 51.9962 73.6361 52.5303 73.105C53.2603 72.3771 53.8771 71.5694 54.3988 70.7107C54.2649 70.7121 54.1366 70.7149 54.0013 70.7149C43.3229 70.7149 34.9573 69.3237 31.1899 67.0134Z" fill="#FF6B00"/>
<path d="M106.343 56.7486C104.014 42.6776 96.2224 34.9293 84.4013 34.9293C78.8772 34.9293 74.2486 36.6452 70.633 39.8884C66.1204 36.3893 60.5383 34.5496 54.0027 34.5496C47.4739 34.5496 41.8973 36.3851 37.3888 39.8747C33.7705 36.6314 29.1309 34.9293 23.604 34.9293C11.7816 34.9293 3.98869 42.679 1.65787 56.7486C1.40257 58.2938 1.82071 59.7593 2.86537 60.9853C5.80339 64.4363 13.4417 65.5371 20.3458 65.7751C20.2948 65.1394 20.2603 64.4996 20.2603 63.8556C20.2603 63.2034 20.3031 62.5594 20.3541 61.9168C11.5925 61.5976 7.09645 59.9987 5.81167 58.4906C5.49979 58.1246 5.40181 57.8012 5.47081 57.3747C8.01553 42.0061 16.7371 38.7808 23.604 38.7808C28.2063 38.7808 31.6743 40.1802 34.3073 42.3556C37.2688 41.0484 40.4883 40.3411 43.8224 40.3411C43.8955 40.3411 43.9687 40.3508 44.0418 40.3522C46.846 39.1193 50.1318 38.401 54.0027 38.401C71.0926 38.401 76.9658 52.2146 78.884 63.8033C79.0096 64.5642 78.8261 65.1862 78.2851 65.8219C76.6954 67.6891 72.5154 69.1188 66.62 69.9375C66.246 71.3424 65.7396 72.7019 65.1103 74.0091C71.6998 73.2867 78.3555 71.6933 81.2314 68.3139C81.8842 67.546 82.3272 66.6998 82.57 65.8082C83.1883 65.8205 83.8065 65.8329 84.4027 65.8329C91.9802 65.8329 101.73 64.9922 105.139 60.9853C106.182 59.7593 106.599 58.2938 106.343 56.7486ZM102.191 58.4933C100.756 60.1803 95.3295 61.9801 84.4013 61.9801C83.7292 61.9801 83.0862 61.9705 82.4583 61.9567C80.9085 53.6663 77.8739 47.1276 73.5255 42.5221C76.9245 39.6559 80.8989 38.7821 84.4013 38.7821C96.842 38.7821 101.127 48.893 102.53 57.3747C102.601 57.8026 102.503 58.1259 102.191 58.4933Z" fill="#FF6B00"/>
<path d="M23.6026 34.0803C30.2238 34.0803 35.61 28.7098 35.61 22.1077C35.61 15.5057 30.2238 10.1338 23.6026 10.1338C16.9814 10.1338 11.5952 15.5057 11.5952 22.1077C11.5952 28.7098 16.9814 34.0803 23.6026 34.0803ZM23.6026 13.9866C28.0931 13.9866 31.746 17.6289 31.746 22.1064C31.746 26.5839 28.0931 30.2248 23.6026 30.2248C19.1121 30.2248 15.4592 26.5839 15.4592 22.1064C15.4592 17.6289 19.1121 13.9866 23.6026 13.9866Z" fill="#FF6B00"/>
<path d="M54.0013 32.114C62.4938 32.114 69.4035 25.2244 69.4035 16.7578C69.4035 8.28994 62.4938 1.39893 54.0013 1.39893C45.5088 1.39893 38.5991 8.28994 38.5991 16.7578C38.6005 25.2244 45.5102 32.114 54.0013 32.114ZM54.0013 5.2531C60.3631 5.2531 65.5395 10.4145 65.5395 16.7578C65.5395 23.0998 60.3645 28.2598 54.0013 28.2598C47.6381 28.2598 42.4631 23.0998 42.4631 16.7578C42.4645 10.4145 47.6395 5.2531 54.0013 5.2531Z" fill="#FF6B00"/>
<path d="M43.8389 42.8152C38.4486 42.8124 33.0294 44.8778 28.917 48.9879C24.8032 53.0815 22.736 58.4823 22.7373 63.8584C22.736 68.0799 24.0194 72.3152 26.5613 75.9272C23.8469 78.5788 9.6922 91.2724 9.6922 91.2724C6.51544 94.4468 6.54028 97.3915 8.37982 99.2229C10.218 101.057 13.1739 101.082 16.3562 97.9157C16.3562 97.9157 29.0867 83.8035 31.7487 81.0969C35.3712 83.626 39.6134 84.9043 43.8458 84.9001H43.8638C49.2485 84.9001 54.6609 82.8361 58.7705 78.737C62.8871 74.6379 64.9571 69.233 64.9515 63.8584C64.9571 58.4837 62.8871 53.0788 58.7705 48.9824C54.6498 44.8792 49.2306 42.8138 43.8389 42.8152ZM54.2828 74.854C51.3102 77.8137 47.4462 79.2833 43.5533 79.2888C39.6575 79.2833 35.7894 77.8151 32.8182 74.8485C29.8526 71.8873 28.3746 68.0345 28.3719 64.1556C28.3774 60.2725 29.8457 56.4197 32.8155 53.464C35.7894 50.4946 39.652 49.0251 43.545 49.0209C47.4338 49.0251 51.302 50.4933 54.2828 53.4599C57.2498 56.4169 58.7264 60.2739 58.7264 64.1542C58.725 68.0386 57.2511 71.8942 54.2828 74.854Z" fill="#FF6B00"/>
</g>
<defs>
<clipPath id="clip0_158_25">
<rect width="110" height="100" fill="white"/>
</clipPath>
</defs>
</svg>
