<svg width="129" height="131" viewBox="0 0 129 131" fill="none" xmlns="http://www.w3.org/2000/svg">
<rect x="27" y="11" width="98" height="98" rx="9" stroke="#F33349" stroke-width="2"/>
<g clip-path="url(#clip0_158_24)">
<rect x="13" y="22" width="100" height="105.263" rx="10" fill="#F33349"/>
<path d="M86.622 74.4419C86.761 74.3859 86.886 74.2999 86.986 74.1899C87.83 73.2709 87.761 71.5279 87.182 70.2639C87.423 69.1389 87.224 67.6679 87.175 67.3489C87.114 66.9489 86.819 66.6239 86.425 66.5279L84.563 66.0709C85.27 64.6759 85.622 62.7769 85.49 61.6529L85.447 61.2919L85.182 61.0429C83.329 59.2959 77.32 58.0679 76.329 57.8739C71.544 56.2669 66.21 56.1599 63.857 56.2059C63.936 56.0029 64.028 55.8199 64.151 55.6929C64.249 55.5929 64.508 55.3309 65.252 55.4639C67.321 55.9489 69.406 55.4209 70.966 54.0129C72.181 52.9159 72.838 51.4789 72.682 50.2619L72.658 50.0789L72.571 49.9159C71.842 48.5619 71.024 47.3739 70.142 46.3659C70.469 42.8949 71.663 39.9919 72.033 39.1679C72.177 38.8509 72.17 38.4899 72.015 38.1799C71.859 37.8659 71.572 37.6419 71.223 37.5629L69.158 37.1069L69.223 36.8529C69.3 36.5519 69.253 36.2269 69.095 35.9599C68.934 35.6899 68.678 35.5009 68.381 35.4279L64.763 34.4999C64.125 34.3339 63.477 34.6489 63.217 35.2359C62.323 37.2269 61.778 40.1959 61.532 41.7859C61.252 40.8259 61.071 39.3539 61.164 37.7829C61.167 37.7389 61.283 35.2409 61.678 34.2129L61.866 33.5729L61.347 33.1529C59.015 31.2649 55.295 31.4159 54.231 31.5029C53.352 31.1219 50.36 29.9209 47.994 30.1309L47.365 30.1829L47.141 30.7729C41.882 44.6459 43.746 56.6059 44.099 58.5319C42.734 58.9889 41.253 60.0289 40.005 62.2519C37.951 65.9119 35.613 78.2799 38.939 81.0119C39.437 81.4209 39.994 81.6249 40.606 81.6249C41.111 81.6249 41.655 81.4829 42.235 81.2049C41.858 82.1679 41.557 83.1549 41.381 84.1629C40.681 88.1889 39.988 98.4389 48.659 106.653C55.813 113.431 66.79 119.378 72.149 119.378C76.352 119.378 82.096 116.179 85.596 100.94C87.918 90.8249 86.875 83.9469 82.215 79.0159C82.683 78.8939 83.11 78.6889 83.461 78.3399C84.224 77.5849 84.464 76.4309 84.221 74.6539C84.461 74.6709 84.716 74.6829 84.975 74.6829C85.566 74.6839 86.169 74.6239 86.622 74.4419ZM85.181 70.0119C85.068 70.3019 85.096 70.6269 85.257 70.8929C85.625 71.5009 85.667 72.2799 85.586 72.6539C85.157 72.7089 84.469 72.6809 83.825 72.6059C83.44 70.9739 82.845 69.1639 81.832 67.5109C82.276 67.5969 82.563 67.6489 82.659 67.6649L85.271 68.3049C85.317 68.9379 85.314 69.6679 85.181 70.0119ZM82.544 65.6099C82 65.5069 81.035 65.3139 79.856 65.0409C80.333 64.4999 81.299 63.1599 81.369 61.2829C82.263 61.5999 83.035 61.9369 83.523 62.2699C83.51 63.3759 83.012 64.9489 82.544 65.6099ZM64.824 36.5799L66.937 37.1219L66.807 37.4459C66.762 37.5579 65.702 40.2379 65.379 43.5919C65.326 44.1419 65.729 44.6299 66.278 44.6829C66.817 44.7459 67.315 44.3329 67.369 43.7839C67.564 41.7559 68.066 39.9669 68.385 38.9849L69.812 39.2989C69.231 40.7869 68.339 43.4979 68.108 46.5799C68.085 46.8829 68.208 47.1549 68.406 47.3539C68.441 47.4169 68.466 47.4839 68.516 47.5399C69.304 48.4139 70.039 49.4659 70.704 50.6699C70.683 51.1499 70.33 51.8939 69.626 52.5279C69.122 52.9829 67.73 53.9909 65.661 53.5069C64.131 53.2259 63.216 53.7869 62.715 54.3039C61.317 55.7489 61.539 58.5779 61.741 59.9219C60.618 60.6879 58.595 62.3199 56.377 64.2809C55.746 63.0549 53.821 61.5449 51.909 60.3579C51.57 57.9889 50.296 46.3649 57.549 44.4069C59.197 43.9659 60.774 43.8449 62.231 44.0509C62.787 44.1299 63.285 43.7459 63.361 43.1999C63.364 43.1789 63.356 43.1609 63.357 43.1399C63.358 43.1329 63.363 43.1269 63.363 43.1189C63.368 43.0769 63.849 39.1379 64.824 36.5799ZM59.575 34.3549C59.433 34.9759 59.335 35.6479 59.264 36.3329C57.55 36.2499 55.752 36.6609 54.478 36.9589C54.392 36.9799 54.301 36.9999 54.21 37.0219C54.289 36.1349 54.549 34.7559 54.857 33.4699C55.929 33.4269 58.057 33.4739 59.575 34.3549ZM48.779 32.1119C50.235 32.1649 51.929 32.7409 52.885 33.1139C52.52 34.6409 51.981 37.2699 52.291 38.3849C52.592 39.4559 53.624 39.2139 54.934 38.9069C56.089 38.6359 57.726 38.2559 59.156 38.3269C59.15 39.6859 59.279 40.9859 59.539 42.0269C58.718 42.1049 57.882 42.2469 57.029 42.4749C49.205 44.5859 49.317 54.7709 49.744 59.1489C48.965 58.7649 48.294 58.4959 47.869 58.4109C47.48 58.3329 46.846 58.2079 46.076 58.2099C45.803 56.6899 43.996 45.2389 48.779 32.1119ZM42.835 78.3939C42.118 79.0119 40.828 79.9719 40.21 79.4669C38.282 77.8829 39.611 67.0449 41.751 63.2309C43.096 60.8339 44.631 60.2169 46.092 60.2169C46.565 60.2169 47.03 60.2809 47.477 60.3709C49.22 60.7199 54.289 64.1559 54.604 65.1549C54.591 65.5189 54.104 66.2019 53.446 66.9679C52.668 67.7089 51.902 68.4599 51.18 69.2009L50.556 69.8319C49.164 71.2319 46.978 73.4379 45.067 76.1189C44.326 76.9619 43.57 77.7589 42.835 78.3939ZM83.649 100.492C81.148 111.381 77.065 117.378 72.151 117.378C67.868 117.378 57.274 112.06 50.036 105.202C42.354 97.9259 42.552 89.1119 43.353 84.5059C43.794 81.9719 45.107 79.5169 46.639 77.3559C47.314 76.5849 47.971 75.7899 48.588 75.0379C49.255 74.2259 49.884 73.4599 50.375 72.9359C50.65 72.6409 51.084 72.2249 51.592 71.7369C52.973 70.4069 54.069 69.3039 54.881 68.3619C58.659 64.7729 62.578 61.6329 63.257 61.3239C63.288 61.3099 63.307 61.2839 63.335 61.2669C63.392 61.2339 63.443 61.1969 63.492 61.1539C63.542 61.1099 63.587 61.0649 63.627 61.0129C63.665 60.9639 63.694 60.9129 63.722 60.8579C63.752 60.7989 63.777 60.7409 63.794 60.6769C63.811 60.6169 63.819 60.5579 63.824 60.4949C63.83 60.4279 63.83 60.3629 63.821 60.2949C63.817 60.2629 63.827 60.2329 63.82 60.2009C63.697 59.6329 63.612 58.9189 63.596 58.2159C66.188 58.1539 74.327 58.2389 79.367 61.4759C79.267 62.3819 78.843 63.0889 78.544 63.4879L76.195 63.0179C76.046 62.9879 75.902 62.9969 75.766 63.0289C74.62 62.9549 73.395 63.2389 72.362 63.8679C70.734 64.8579 69.841 66.5089 69.847 68.5139C69.853 70.5549 70.681 72.4659 71.902 74.0879C71.942 74.5539 72.018 75.5309 72.085 76.8289C71.644 77.1189 71.101 77.3509 70.49 77.6069C68.795 78.3189 66.684 79.2049 65.453 82.1089C63.232 87.3489 61.346 90.0499 60.461 90.4039C59.948 90.6089 59.698 91.1909 59.903 91.7039C60.059 92.0959 60.435 92.3329 60.832 92.3329C60.956 92.3329 61.081 92.3109 61.203 92.2619C62.564 91.7179 64.032 89.5579 65.337 87.0709C64.217 91.9029 60.173 96.0769 60.12 96.1309C59.732 96.5239 59.737 97.1559 60.13 97.5439C60.324 97.7359 60.578 97.8329 60.832 97.8329C61.09 97.8329 61.348 97.7329 61.543 97.5359C61.85 97.2259 68.89 89.9799 67.413 82.6539C68.334 80.6989 69.757 80.0839 71.265 79.4519C71.568 79.3249 71.872 79.1909 72.174 79.0499C72.295 83.3799 72.154 89.3699 70.764 92.9919C70.172 94.6249 70.285 96.2989 70.735 97.8679C70.739 97.8839 70.734 97.8999 70.738 97.9159C72.128 103.058 70.004 106.483 69.913 106.627C69.616 107.09 69.749 107.707 70.211 108.006C70.379 108.115 70.567 108.167 70.754 108.167C71.082 108.167 71.402 108.006 71.594 107.711C71.669 107.595 72.869 105.686 73.146 102.609C74.236 104.119 75.253 105.119 75.358 105.22C75.552 105.408 75.802 105.5 76.052 105.5C76.314 105.5 76.575 105.397 76.772 105.194C77.156 104.797 77.144 104.164 76.747 103.78C76.705 103.74 73.708 100.8 72.689 97.4759C72.682 97.4479 72.678 97.4219 72.67 97.3939C72.666 97.3789 72.655 97.3689 72.65 97.3549C72.296 96.1399 72.207 94.8789 72.637 93.6909C73.616 91.1389 74.026 87.6139 74.16 84.2259C75.88 85.3399 77.437 86.6379 78.73 87.8539C77.736 92.8419 79.448 95.8719 79.525 96.0039C79.711 96.3209 80.043 96.4969 80.385 96.4969C80.555 96.4969 80.727 96.4539 80.885 96.3629C81.362 96.0889 81.526 95.4779 81.255 94.9999C81.242 94.9779 80.152 92.9849 80.485 89.6059C81.748 90.9449 82.503 91.9169 82.52 91.9399C82.717 92.1969 83.014 92.3319 83.315 92.3319C83.527 92.3319 83.741 92.2649 83.922 92.1259C84.36 91.7899 84.443 91.1629 84.108 90.7249C83.931 90.4929 79.815 85.1759 74.212 81.9109C74.226 79.7879 74.151 77.8359 74.067 76.3519C75.653 77.6759 77.43 78.5909 78.933 78.8919C79.032 78.9119 79.13 78.9239 79.229 78.9419C79.234 78.9459 79.235 78.9509 79.24 78.9549C82.905 81.9669 86.716 87.1349 83.649 100.492ZM82.057 76.9189C81.746 77.2279 80.829 77.2319 79.328 76.9319C76.325 76.3309 71.861 72.5299 71.849 68.5089C71.844 66.8709 72.691 66.0109 73.403 65.5779C74.008 65.2099 74.74 65.0179 75.422 65.0179C75.898 65.0179 76.35 65.1119 76.716 65.3029C80.373 67.2099 81.537 71.1189 82.144 74.3109C82.507 76.2279 82.204 76.7729 82.057 76.9189Z" fill="white"/>
<path d="M51.6961 73.598C51.3141 73.949 42.3971 82.326 45.9851 93.799C46.1191 94.227 46.5131 94.5 46.9391 94.5C47.0381 94.5 47.1381 94.485 47.2381 94.454C47.7641 94.29 48.0581 93.728 47.8931 93.201C44.6901 82.957 52.9661 75.145 53.0501 75.068C53.4551 74.693 53.4811 74.06 53.1071 73.655C52.7331 73.25 52.1011 73.225 51.6961 73.598Z" fill="white"/>
<path d="M57.29 45.8828C54.686 46.3018 52.988 50.3728 53.064 56.0138C53.072 56.5618 53.518 56.9998 54.064 56.9998C54.068 56.9998 54.073 56.9998 54.078 56.9998C54.63 56.9918 55.072 56.5388 55.064 55.9858C54.996 50.9598 56.498 48.0358 57.608 47.8568C58.153 47.7688 58.524 47.2558 58.436 46.7108C58.35 46.1658 57.837 45.7938 57.29 45.8828Z" fill="white"/>
</g>
<defs>
<clipPath id="clip0_158_24">
<rect x="13" y="22" width="100" height="105.263" rx="10" fill="white"/>
</clipPath>
</defs>
</svg>
