<svg width="100" height="125" viewBox="0 0 100 125" fill="none" xmlns="http://www.w3.org/2000/svg">
<path fill-rule="evenodd" clip-rule="evenodd" d="M37.59 65.8801H48.83V85.8801H37.32V66.1501C37.3225 66.0793 37.3517 66.0121 37.4018 65.962C37.4519 65.9118 37.5192 65.8826 37.59 65.8801ZM51.18 65.8801V85.8801H62.68V66.1501C62.6775 66.0793 62.6483 66.0121 62.5982 65.962C62.5481 65.9118 62.4808 65.8826 62.41 65.8801H51.18ZM93.18 85.8801H72.69V23.0501H90.09C90.9105 23.0554 91.696 23.3836 92.2762 23.9639C92.8565 24.5441 93.1848 25.3296 93.19 26.1501L93.18 85.8801ZM88.92 70.3501C88.9213 70.0052 88.8545 69.6634 88.7234 69.3444C88.5924 69.0254 88.3996 68.7354 88.1562 68.491C87.9127 68.2467 87.6235 68.0528 87.3049 67.9205C86.9864 67.7882 86.6449 67.7201 86.3 67.7201H79.58C78.8904 67.7306 78.2327 68.0127 77.7497 68.5051C77.2667 68.9974 76.9973 69.6604 77 70.3501V76.2701C77 76.6142 77.0678 76.9549 77.1994 77.2727C77.3311 77.5906 77.5241 77.8794 77.7674 78.1227C78.0107 78.366 78.2995 78.559 78.6174 78.6907C78.9352 78.8223 79.2759 78.8901 79.62 78.8901H86.3C86.6441 78.8901 86.9848 78.8223 87.3026 78.6907C87.6205 78.559 87.9093 78.366 88.1526 78.1227C88.3959 77.8794 88.5889 77.5906 88.7206 77.2727C88.8522 76.9549 88.92 76.6142 88.92 76.2701V70.3501ZM88.92 52.2501C88.92 51.5553 88.644 50.8888 88.1526 50.3975C87.6613 49.9062 86.9949 49.6301 86.3 49.6301H79.58C78.8921 49.6406 78.2359 49.9213 77.7532 50.4115C77.2705 50.9017 76.9999 51.5621 77 52.2501V58.1701C77 58.865 77.276 59.5314 77.7674 60.0227C78.2587 60.5141 78.9251 60.7901 79.62 60.7901H86.3C86.9949 60.7901 87.6613 60.5141 88.1526 60.0227C88.644 59.5314 88.92 58.865 88.92 58.1701V52.2501ZM88.92 34.1501C88.92 33.4553 88.644 32.7888 88.1526 32.2975C87.6613 31.8062 86.9949 31.5301 86.3 31.5301H79.58C78.8921 31.5406 78.2359 31.8213 77.7532 32.3115C77.2705 32.8017 76.9999 33.4621 77 34.1501V40.0801C77 40.775 77.276 41.4414 77.7674 41.9327C78.2587 42.4241 78.9251 42.7001 79.62 42.7001H86.3C86.9949 42.7001 87.6613 42.4241 88.1526 41.9327C88.644 41.4414 88.92 40.775 88.92 40.0801V34.1501ZM27.31 85.9101H6.81V26.1501C6.81524 25.3296 7.14353 24.5441 7.72376 23.9639C8.30399 23.3836 9.08945 23.0554 9.91 23.0501H27.31V85.9101ZM23 70.3501C23.0013 70.0052 22.9345 69.6634 22.8034 69.3444C22.6724 69.0254 22.4796 68.7354 22.2362 68.491C21.9927 68.2467 21.7035 68.0528 21.3849 67.9205C21.0664 67.7882 20.7249 67.7201 20.38 67.7201H13.7C13.3551 67.7201 13.0136 67.7882 12.6951 67.9205C12.3765 68.0528 12.0873 68.2467 11.8438 68.491C11.6004 68.7354 11.4076 69.0254 11.2766 69.3444C11.1455 69.6634 11.0787 70.0052 11.08 70.3501V76.2701C11.08 76.6142 11.1478 76.9549 11.2794 77.2727C11.4111 77.5906 11.6041 77.8794 11.8474 78.1227C12.0907 78.366 12.3795 78.559 12.6974 78.6907C13.0152 78.8223 13.3559 78.8901 13.7 78.8901H20.42C21.1079 78.8796 21.7641 78.5989 22.2468 78.1087C22.7295 77.6185 23.0001 76.9581 23 76.2701V70.3501ZM23 52.2501C23 51.9061 22.9322 51.5654 22.8006 51.2475C22.6689 50.9296 22.4759 50.6408 22.2326 50.3975C21.9893 50.1542 21.7005 49.9612 21.3826 49.8296C21.0648 49.6979 20.7241 49.6301 20.38 49.6301H13.7C13.0051 49.6301 12.3387 49.9062 11.8474 50.3975C11.356 50.8888 11.08 51.5553 11.08 52.2501V58.1701C11.08 58.865 11.356 59.5314 11.8474 60.0227C12.3387 60.5141 13.0051 60.7901 13.7 60.7901H20.42C21.1079 60.7796 21.7641 60.499 22.2468 60.0087C22.7295 59.5185 23.0001 58.8581 23 58.1701V52.2501ZM23 34.1501C23 33.8061 22.9322 33.4654 22.8006 33.1475C22.6689 32.8296 22.4759 32.5408 22.2326 32.2975C21.9893 32.0542 21.7005 31.8612 21.3826 31.7296C21.0648 31.5979 20.7241 31.5301 20.38 31.5301H13.7C13.0051 31.5301 12.3387 31.8062 11.8474 32.2975C11.356 32.7888 11.08 33.4553 11.08 34.1501V40.0801C11.08 40.4242 11.1478 40.7649 11.2794 41.0827C11.4111 41.4006 11.6041 41.6894 11.8474 41.9327C12.0907 42.176 12.3795 42.369 12.6974 42.5007C13.0152 42.6324 13.3559 42.7001 13.7 42.7001H20.42C21.1079 42.6896 21.7641 42.409 22.2468 41.9187C22.7295 41.4285 23.0001 40.7681 23 40.0801V34.1501ZM35 85.9101H29.66V9.72012C29.66 8.89795 29.9866 8.10945 30.568 7.52809C31.1493 6.94672 31.9378 6.62012 32.76 6.62012H67.24C68.0622 6.62012 68.8507 6.94672 69.432 7.52809C70.0134 8.10945 70.34 8.89795 70.34 9.72012V85.9101H65V66.1501C64.9974 65.4561 64.7205 64.7912 64.2297 64.3004C63.7389 63.8096 63.0741 63.5327 62.38 63.5301H37.59C36.9012 63.5406 36.2439 63.8209 35.7596 64.3109C35.2753 64.8008 35.0025 65.4612 35 66.1501V85.9101ZM65 52.2501C65 51.5553 64.724 50.8888 64.2326 50.3975C63.7413 49.9062 63.0749 49.6301 62.38 49.6301H55.69C55.3451 49.6288 55.0033 49.6956 54.6843 49.8267C54.3653 49.9578 54.0753 50.1505 53.8309 50.394C53.5866 50.6374 53.3927 50.9266 53.2604 51.2452C53.1281 51.5637 53.06 51.9052 53.06 52.2501V58.1701C53.06 58.515 53.1281 58.8565 53.2604 59.1751C53.3927 59.4936 53.5866 59.7829 53.8309 60.0263C54.0753 60.2697 54.3653 60.4625 54.6843 60.5936C55.0033 60.7246 55.3451 60.7914 55.69 60.7901H62.41C63.0997 60.7822 63.7584 60.5027 64.2433 60.0122C64.7281 59.5217 65 58.8598 65 58.1701V52.2501ZM35.71 28.4001C35.71 31.2264 36.5481 33.9892 38.1183 36.3392C39.6885 38.6892 41.9203 40.5208 44.5315 41.6024C47.1426 42.6839 50.0159 42.9669 52.7878 42.4155C55.5598 41.8642 58.1061 40.5032 60.1046 38.5047C62.1031 36.5062 63.464 33.9599 64.0154 31.188C64.5668 28.416 64.2838 25.5427 63.2022 22.9316C62.1207 20.3204 60.2891 18.0886 57.9391 16.5184C55.5891 14.9482 52.8263 14.1101 50 14.1101C46.2101 14.1101 42.5753 15.6157 39.8954 18.2956C37.2155 20.9755 35.71 24.6102 35.71 28.4001ZM35 58.1701C35 58.865 35.276 59.5314 35.7674 60.0227C36.2587 60.5141 36.9251 60.7901 37.62 60.7901H44.34C44.6849 60.7914 45.0267 60.7246 45.3457 60.5936C45.6647 60.4625 45.9547 60.2697 46.1991 60.0263C46.4434 59.7829 46.6373 59.4936 46.7696 59.1751C46.9019 58.8565 46.97 58.515 46.97 58.1701V52.2501C46.97 51.9052 46.9019 51.5637 46.7696 51.2452C46.6373 50.9266 46.4434 50.6374 46.1991 50.394C45.9547 50.1505 45.6647 49.9578 45.3457 49.8267C45.0267 49.6956 44.6849 49.6288 44.34 49.6301H37.59C36.9003 49.638 36.2416 49.9175 35.7567 50.408C35.2719 50.8985 35 51.5604 35 52.2501V58.1701ZM20.42 70.0701H13.7C13.6275 70.0727 13.5588 70.1034 13.5084 70.1556C13.4581 70.2078 13.43 70.2776 13.43 70.3501V76.2701C13.43 76.3417 13.4584 76.4104 13.5091 76.461C13.5597 76.5117 13.6284 76.5401 13.7 76.5401H20.42C20.4916 76.5401 20.5603 76.5117 20.6109 76.461C20.6616 76.4104 20.69 76.3417 20.69 76.2701V70.3501C20.69 70.2776 20.6619 70.2078 20.6116 70.1556C20.5612 70.1034 20.4925 70.0727 20.42 70.0701ZM86.3 70.0701H79.58C79.5075 70.0727 79.4388 70.1034 79.3884 70.1556C79.3381 70.2078 79.31 70.2776 79.31 70.3501V76.2701C79.31 76.3417 79.3384 76.4104 79.3891 76.461C79.4397 76.5117 79.5084 76.5401 79.58 76.5401H86.3C86.3716 76.5401 86.4403 76.5117 86.4909 76.461C86.5416 76.4104 86.57 76.3417 86.57 76.2701V70.3501C86.57 70.2776 86.5419 70.2078 86.4916 70.1556C86.4412 70.1034 86.3725 70.0727 86.3 70.0701ZM86.3 52.0001H79.58C79.5084 52.0001 79.4397 52.0286 79.3891 52.0792C79.3384 52.1298 79.31 52.1985 79.31 52.2701V58.1901C79.31 58.2256 79.317 58.2607 79.3306 58.2934C79.3441 58.3262 79.364 58.356 79.3891 58.381C79.4142 58.4061 79.4439 58.426 79.4767 58.4396C79.5094 58.4531 79.5445 58.4601 79.58 58.4601H86.3C86.3355 58.4601 86.3706 58.4531 86.4033 58.4396C86.4361 58.426 86.4659 58.4061 86.4909 58.381C86.516 58.356 86.5359 58.3262 86.5494 58.2934C86.563 58.2607 86.57 58.2256 86.57 58.1901V52.2501C86.5649 52.182 86.5343 52.1184 86.4842 52.072C86.4341 52.0256 86.3683 51.9999 86.3 52.0001ZM20.42 52.0001H13.7C13.6284 52.0001 13.5597 52.0286 13.5091 52.0792C13.4584 52.1298 13.43 52.1985 13.43 52.2701V58.1901C13.43 58.2256 13.437 58.2607 13.4506 58.2934C13.4641 58.3262 13.484 58.356 13.5091 58.381C13.5342 58.4061 13.5639 58.426 13.5967 58.4396C13.6294 58.4531 13.6645 58.4601 13.7 58.4601H20.42C20.4555 58.4601 20.4906 58.4531 20.5233 58.4396C20.5561 58.426 20.5858 58.4061 20.6109 58.381C20.636 58.356 20.6559 58.3262 20.6694 58.2934C20.683 58.2607 20.69 58.2256 20.69 58.1901V52.2501C20.6849 52.182 20.6543 52.1184 20.6042 52.072C20.5541 52.0256 20.4883 51.9999 20.42 52.0001ZM95.55 88.2601H4.45C4.06544 88.2601 3.69662 88.4129 3.4247 88.6848C3.15277 88.9567 3 89.3255 3 89.7101V91.9401C3.00264 92.3229 3.15657 92.6892 3.42821 92.959C3.69986 93.2287 4.06716 93.3801 4.45 93.3801H95.55C95.9328 93.3801 96.3001 93.2287 96.5718 92.959C96.8434 92.6892 96.9974 92.3229 97 91.9401V89.7101C97 89.3255 96.8472 88.9567 96.5753 88.6848C96.3034 88.4129 95.9346 88.2601 95.55 88.2601ZM86.3 33.8801H79.58C79.5092 33.8826 79.4419 33.9118 79.3918 33.962C79.3417 34.0121 79.3125 34.0793 79.31 34.1501V40.0801C79.3125 40.1509 79.3417 40.2182 79.3918 40.2683C79.4419 40.3184 79.5092 40.3476 79.58 40.3501H86.3C86.3708 40.3476 86.4381 40.3184 86.4882 40.2683C86.5383 40.2182 86.5675 40.1509 86.57 40.0801V34.1501C86.5675 34.0793 86.5383 34.0121 86.4882 33.962C86.4381 33.9118 86.3708 33.8826 86.3 33.8801ZM20.42 33.8801H13.7C13.6292 33.8826 13.5619 33.9118 13.5118 33.962C13.4617 34.0121 13.4325 34.0793 13.43 34.1501V40.0801C13.4325 40.1509 13.4617 40.2182 13.5118 40.2683C13.5619 40.3184 13.6292 40.3476 13.7 40.3501H20.42C20.4908 40.3476 20.5581 40.3184 20.6082 40.2683C20.6583 40.2182 20.6875 40.1509 20.69 40.0801V34.1501C20.6875 34.0793 20.6583 34.0121 20.6082 33.962C20.5581 33.9118 20.4908 33.8826 20.42 33.8801ZM37.59 58.4401H44.31C44.3826 58.4402 44.4523 58.412 44.5045 58.3617C44.5568 58.3113 44.5874 58.2426 44.59 58.1701V52.2501C44.5874 52.1776 44.5568 52.1089 44.5045 52.0586C44.4523 52.0082 44.3826 51.9801 44.31 51.9801H37.59C37.5545 51.9801 37.5194 51.9871 37.4867 52.0007C37.4539 52.0142 37.4242 52.0341 37.3991 52.0592C37.374 52.0843 37.3541 52.114 37.3406 52.1468C37.327 52.1796 37.32 52.2147 37.32 52.2501V58.1701C37.32 58.2417 37.3484 58.3104 37.3991 58.361C37.4497 58.4117 37.5184 58.4401 37.59 58.4401ZM62.41 52.0001H55.69C55.6174 52.0001 55.5477 52.0282 55.4955 52.0786C55.4432 52.1289 55.4126 52.1976 55.41 52.2701V58.1901C55.4126 58.2626 55.4432 58.3313 55.4955 58.3817C55.5477 58.432 55.6174 58.4602 55.69 58.4601H62.41C62.4455 58.4601 62.4806 58.4531 62.5133 58.4396C62.5461 58.426 62.5758 58.4061 62.6009 58.381C62.626 58.356 62.6459 58.3262 62.6594 58.2934C62.673 58.2607 62.68 58.2256 62.68 58.1901V52.2501C62.6749 52.182 62.6443 52.1184 62.5942 52.072C62.5441 52.0256 62.4783 51.9999 62.41 52.0001ZM38.06 28.4001C38.062 26.039 38.7639 23.7315 40.0771 21.7693C41.3903 19.8071 43.2558 18.2783 45.4377 17.3761C47.6196 16.474 50.02 16.2389 52.3355 16.7008C54.651 17.1626 56.7775 18.3006 58.4464 19.9708C60.1152 21.641 61.2514 23.7686 61.7113 26.0844C62.1712 28.4003 61.9342 30.8005 61.0302 32.9817C60.1262 35.1628 58.5958 37.027 56.6325 38.3386C54.6692 39.6501 52.3611 40.3501 50 40.3501C48.4312 40.3501 46.8777 40.041 45.4284 39.4403C43.9792 38.8396 42.6625 37.9592 41.5536 36.8494C40.4447 35.7396 39.5655 34.4222 38.966 32.9724C38.3666 31.5226 38.0587 29.9689 38.06 28.4001ZM42.18 30.4001C42.18 30.6653 42.2854 30.9197 42.4729 31.1072C42.6604 31.2948 42.9148 31.4001 43.18 31.4001H47.18V35.4001C47.18 35.6653 47.2854 35.9197 47.4729 36.1072C47.6604 36.2948 47.9148 36.4001 48.18 36.4001H51.9C52.1652 36.4001 52.4196 36.2948 52.6071 36.1072C52.7946 35.9197 52.9 35.6653 52.9 35.4001V31.4001H56.9C57.1652 31.4001 57.4196 31.2948 57.6071 31.1072C57.7946 30.9197 57.9 30.6653 57.9 30.4001V26.6801C57.9 26.4149 57.7946 26.1605 57.6071 25.973C57.4196 25.7855 57.1652 25.6801 56.9 25.6801H52.9V21.6801C52.9 21.4149 52.7946 21.1605 52.6071 20.973C52.4196 20.7855 52.1652 20.6801 51.9 20.6801H48.14C47.8748 20.6801 47.6204 20.7855 47.4329 20.973C47.2454 21.1605 47.14 21.4149 47.14 21.6801V25.6801H43.14C42.8748 25.6801 42.6204 25.7855 42.4329 25.973C42.2454 26.1605 42.14 26.4149 42.14 26.6801L42.18 30.4001Z" fill="#00A8B3"/>
</svg>
